<?xml version="1.0" standalone="no"?>
<!DOCTYPE svg PUBLIC "-//W3C//DTD SVG 20010904//EN"
 "http://www.w3.org/TR/2001/REC-SVG-20010904/DTD/svg10.dtd">
<svg version="1.0" xmlns="http://www.w3.org/2000/svg"
 width="512.000000pt" height="447.000000pt" viewBox="0 0 512.000000 447.000000"
 preserveAspectRatio="xMidYMid meet">

<g transform="translate(0.000000,447.000000) scale(0.100000,-0.100000)"
fill="#000000" stroke="none">
<path d="M4987 4143 c-56 -97 -277 -515 -277 -525 1 -7 63 -128 139 -268 l138
-255 67 -3 66 -3 0 531 0 530 -64 0 c-36 0 -67 -3 -69 -7z"/>
<path d="M3976 3435 c-3 -8 -1 -15 4 -15 6 0 10 7 10 15 0 8 -2 15 -4 15 -2 0
-6 -7 -10 -15z"/>
<path d="M4312 3408 c6 -18 28 -21 28 -4 0 9 -7 16 -16 16 -9 0 -14 -5 -12
-12z"/>
<path d="M4645 3370 c3 -5 13 -10 21 -10 8 0 14 5 14 10 0 6 -9 10 -21 10 -11
0 -17 -4 -14 -10z"/>
<path d="M4720 3364 c0 -13 38 -26 52 -18 17 10 7 22 -22 26 -19 3 -30 0 -30
-8z"/>
<path d="M3892 3286 c-18 -30 -24 -57 -26 -113 -1 -40 -7 -78 -14 -85 -9 -9
-12 -3 -12 28 0 23 -3 44 -7 47 -3 4 -19 -16 -35 -43 l-29 -50 87 -155 c48
-85 89 -155 93 -155 4 0 24 22 45 50 20 27 46 52 57 55 11 4 18 12 16 18 -2 8
-28 11 -78 9 -72 -3 -74 -3 -86 24 -11 23 -10 43 2 110 10 50 15 123 13 190
l-3 109 -23 -39z"/>
<path d="M4453 3302 c-28 -4 -45 -25 -37 -46 5 -12 19 -16 60 -16 31 0 54 4
54 11 0 5 5 7 10 4 15 -9 12 4 -4 20 -7 8 -16 11 -20 8 -3 -4 -6 -2 -6 4 0 13
-27 20 -57 15z m42 -32 c3 -5 -3 -10 -15 -10 -12 0 -18 5 -15 10 3 6 10 10 15
10 5 0 12 -4 15 -10z"/>
<path d="M4792 3254 c-32 -22 -27 -40 21 -71 23 -15 49 -35 57 -46 15 -18 16
-18 34 2 18 19 17 22 -14 75 -34 61 -56 70 -98 40z"/>
<path d="M4396 3205 c-3 -9 0 -15 8 -15 8 0 16 7 20 15 3 9 0 15 -8 15 -8 0
-16 -7 -20 -15z"/>
<path d="M4435 3180 c-7 -11 42 -26 53 -16 7 8 -17 26 -35 26 -6 0 -15 -4 -18
-10z"/>
<path d="M4510 3175 c-10 -13 -9 -15 9 -15 12 0 21 6 21 15 0 8 -4 15 -9 15
-5 0 -14 -7 -21 -15z"/>
<path d="M4395 3165 c-5 -2 -22 -6 -37 -9 -14 -3 -39 -17 -55 -29 -18 -15 -42
-24 -67 -25 -21 -1 -47 -9 -56 -17 -40 -36 -78 -276 -61 -382 5 -33 7 -80 4
-104 -6 -40 -5 -43 10 -30 9 7 14 18 10 24 -4 7 7 8 34 4 31 -5 42 -3 46 7 3
8 4 67 1 130 -3 80 -1 116 6 116 7 0 5 9 -4 22 -22 31 -20 73 6 138 12 30 23
56 23 58 1 1 19 -4 40 -11 29 -10 41 -21 47 -43 4 -16 3 -33 -2 -38 -5 -5 -4
-16 3 -27 9 -14 6 -27 -13 -61 -28 -51 -38 -59 -65 -52 -19 5 -19 4 -2 -9 21
-18 21 -26 1 -48 -17 -19 -11 -39 12 -39 20 0 34 -42 34 -102 0 -50 0 -51 20
-33 11 10 20 24 20 30 0 7 12 15 26 18 20 4 28 -1 37 -22 l11 -26 4 35 c7 63
53 70 69 10 7 -27 7 -40 0 -40 -14 0 0 -13 16 -16 21 -3 41 148 25 192 -9 27
-9 41 0 67 7 18 12 43 12 56 0 12 4 20 9 17 17 -11 34 -150 33 -269 l-1 -118
41 3 41 3 93 160 92 160 -94 3 c-106 3 -97 -6 -109 107 -11 106 -25 144 -56
160 -37 20 -59 19 -59 -1 0 -13 -3 -14 -14 -5 -10 8 -16 9 -21 1 -4 -7 -12 -7
-27 1 -11 6 -29 9 -39 6 -12 -3 -19 0 -19 8 0 16 -10 24 -25 20z m100 -65 c4
-6 -5 -10 -19 -10 -14 0 -26 5 -26 10 0 6 9 10 19 10 11 0 23 -4 26 -10z"/>
<path d="M4760 3156 c0 -7 7 -13 15 -13 8 0 15 4 15 8 0 4 -7 9 -15 13 -9 3
-15 0 -15 -8z"/>
<path d="M4804 3143 c10 -10 46 -11 40 -1 -3 4 -15 8 -26 8 -12 0 -18 -3 -14
-7z"/>
<path d="M4764 3086 c3 -11 6 -29 6 -38 0 -9 13 -26 29 -37 l28 -20 19 22 c10
12 12 16 4 10 -8 -7 -21 -13 -29 -13 -12 1 -10 6 8 20 12 11 26 18 30 15 4 -2
8 2 8 10 0 8 -6 15 -14 15 -7 0 -13 4 -13 8 0 4 -18 13 -41 19 -39 10 -40 10
-35 -11z m58 -17 c17 -9 18 -13 7 -20 -24 -15 -45 -10 -45 11 0 23 9 25 38 9z"/>
<path d="M4268 2953 c7 -3 16 -2 19 1 4 3 -2 6 -13 5 -11 0 -14 -3 -6 -6z"/>
<path d="M3725 2878 l-28 -22 22 -17 c13 -10 17 -20 11 -24 -15 -9 -12 -35 4
-35 9 0 12 -7 9 -20 -5 -19 -6 -20 -20 -3 -16 20 -14 12 7 -29 7 -16 22 -28
32 -28 26 0 22 -13 -12 -38 -19 -14 -31 -35 -36 -58 -13 -68 -61 -104 -148
-108 -14 -1 -22 -9 -24 -24 -2 -12 -8 -20 -13 -17 -13 8 -11 -19 2 -32 12 -12
132 7 169 27 15 8 21 8 24 -2 4 -13 26 -220 26 -245 0 -7 5 -13 10 -13 6 0 10
7 10 17 0 9 3 14 6 10 6 -5 9 -37 13 -106 1 -16 5 -21 10 -15 20 21 231 400
231 415 0 34 -104 199 -137 219 l-32 19 -29 -51 c-19 -32 -32 -46 -37 -39 -4
7 0 20 9 30 17 19 12 33 -9 25 -7 -3 -15 4 -17 18 -3 13 -8 30 -12 38 -5 11 0
16 14 17 12 1 20 -5 21 -15 0 -13 3 -12 11 6 11 22 28 30 28 12 0 -5 5 -10 10
-10 17 0 11 40 -12 81 -18 33 -27 39 -53 39 -18 0 -45 -10 -60 -22z m56 -318
l-10 -25 0 27 c-1 14 2 35 6 45 7 17 8 17 11 -2 1 -12 -2 -32 -7 -45z"/>
<path d="M3000 2803 c-25 -43 -25 -68 0 -86 l21 -14 -25 -56 c-14 -32 -33
-111 -45 -183 l-20 -126 98 -172 c81 -140 104 -172 123 -174 22 -3 24 0 20 27
-3 24 -9 31 -26 31 -33 0 -59 35 -45 61 9 17 17 20 45 16 18 -3 36 -1 40 4 3
6 17 8 30 5 30 -8 30 -1 4 163 -11 68 -19 125 -18 126 2 1 44 -3 94 -8 50 -6
100 -7 110 -2 10 4 26 8 34 7 10 -1 11 0 3 4 -7 3 -13 14 -13 24 0 27 -14 32
-102 36 -75 4 -80 5 -119 41 -23 21 -52 57 -66 81 -14 23 -38 49 -53 57 -17 9
-30 25 -33 42 l-5 28 23 -27 c12 -14 27 -23 34 -19 12 8 -21 43 -51 54 -10 4
-18 14 -17 24 0 11 3 13 6 5 2 -7 13 -17 23 -22 17 -9 19 -6 18 30 0 23 -5 40
-12 40 -7 0 -7 3 1 8 8 5 -1 8 -22 9 -29 1 -37 -4 -55 -34z"/>
<path d="M4101 2704 c0 -11 3 -14 6 -6 3 7 2 16 -1 19 -3 4 -6 -2 -5 -13z"/>
<path d="M4015 2650 c-3 -5 -1 -10 4 -10 6 0 11 5 11 10 0 6 -2 10 -4 10 -3 0
-8 -4 -11 -10z"/>
<path d="M4471 2603 c0 -6 -10 -9 -20 -6 -13 3 -23 -2 -30 -16 -7 -12 -8 -21
-4 -21 4 0 1 -5 -7 -10 -11 -7 -4 -10 25 -9 37 0 96 17 67 18 -7 1 -10 6 -7
11 3 6 2 10 -4 10 -5 0 -12 8 -14 18 -3 9 -5 12 -6 5z"/>
<path d="M3460 2476 c0 -2 7 -6 15 -10 8 -3 15 -1 15 4 0 6 -7 10 -15 10 -8 0
-15 -2 -15 -4z"/>
<path d="M3460 2440 c0 -5 7 -7 15 -4 8 4 15 8 15 10 0 2 -7 4 -15 4 -8 0 -15
-4 -15 -10z"/>
<path d="M4374 2235 c-29 -23 -38 -71 -22 -117 7 -20 7 -33 -2 -43 -18 -22
-30 -18 -30 10 0 21 -6 26 -40 31 -28 5 -42 13 -47 28 -6 16 -9 10 -14 -29 -5
-40 -3 -55 11 -76 17 -24 17 -26 -6 -46 -16 -14 -24 -32 -24 -53 0 -24 -5 -33
-21 -37 -18 -5 -20 -11 -14 -54 4 -27 8 -79 9 -115 2 -72 17 -94 64 -94 26 0
211 -119 212 -136 0 -6 -25 -17 -55 -24 -31 -7 -64 -19 -73 -27 -14 -10 13
-12 167 -10 l185 2 54 95 c232 405 243 427 231 454 -7 14 -16 26 -21 26 -5 0
-7 -4 -4 -9 5 -7 -14 -21 -27 -21 -1 0 -1 21 1 47 4 71 -2 76 -81 63 -37 -7
-67 -16 -67 -21 0 -5 -4 -9 -8 -9 -5 0 -9 14 -10 31 0 17 -2 32 -4 33 -2 1
-34 0 -73 -3 l-70 -6 -15 -46 -15 -46 -32 13 c-30 13 -33 12 -47 -8 -9 -12
-18 -20 -21 -17 -5 5 11 60 26 92 7 13 5 17 -11 17 -25 0 -34 21 -26 56 6 21
12 25 31 21 14 -2 25 0 25 4 0 5 -6 9 -13 9 -7 0 -22 8 -33 18 -25 24 -58 23
-90 -3z m-137 -167 c-3 -8 -6 -5 -6 6 -1 11 2 17 5 13 3 -3 4 -12 1 -19z m53
-18 c0 -5 -9 -10 -21 -10 -11 0 -17 5 -14 10 3 6 13 10 21 10 8 0 14 -4 14
-10z m128 -40 c7 0 10 -14 7 -37 -2 -21 -4 -49 -5 -63 -1 -16 -8 -4 -20 35
-10 33 -21 69 -26 80 -7 19 -7 19 13 3 11 -10 25 -18 31 -18z m317 13 c-4 -10
-10 -26 -12 -35 -3 -11 -15 -18 -29 -18 -22 0 -24 -4 -25 -52 l-1 -53 -13 50
c-7 28 -14 44 -14 38 -1 -16 -43 -11 -49 5 -2 7 7 12 23 12 24 0 26 3 20 29
-6 28 -4 30 27 34 74 9 81 8 73 -10z m-265 -23 c0 -5 -4 -10 -10 -10 -5 0 -10
5 -10 10 0 6 5 10 10 10 6 0 10 -4 10 -10z m367 -16 c-3 -3 -12 -4 -19 -1 -8
3 -5 6 6 6 11 1 17 -2 13 -5z m-189 -94 c3 -21 2 -22 -12 -11 -19 16 -21 44
-3 39 6 -3 14 -15 15 -28z m-221 -42 c-3 -7 -5 -2 -5 12 0 14 2 19 5 13 2 -7
2 -19 0 -25z m166 -133 l-28 -12 48 -21 c26 -11 47 -25 47 -29 0 -5 -22 -14
-49 -19 -35 -7 -48 -7 -45 1 6 16 -36 57 -52 51 -7 -3 -16 -1 -19 4 -4 6 9 10
29 10 20 0 36 5 36 10 0 6 8 10 18 11 10 0 12 3 5 6 -7 2 -13 17 -13 31 l0 27
25 -29 26 -30 -28 -11z m-73 -86 c0 -6 -4 -7 -10 -4 -5 3 -10 11 -10 16 0 6 5
7 10 4 6 -3 10 -11 10 -16z m-35 -5 c13 -5 14 -9 3 -15 -11 -8 -11 -11 1 -18
29 -19 -28 -23 -59 -4 -36 21 -38 30 -7 36 37 7 45 7 62 1z m45 -94 c-36 -12
-78 -12 -85 0 -4 6 16 10 52 9 44 -1 52 -3 33 -9z"/>
<path d="M4105 2230 c-3 -5 -2 -10 4 -10 5 0 12 -8 14 -17 3 -11 5 -7 6 10 1
27 -12 36 -24 17z"/>
<path d="M4665 2210 c-3 -5 -1 -10 4 -10 6 0 11 5 11 10 0 6 -2 10 -4 10 -3 0
-8 -4 -11 -10z"/>
<path d="M3951 2194 c0 -11 3 -14 6 -6 3 7 2 16 -1 19 -3 4 -6 -2 -5 -13z"/>
<path d="M4585 2200 c3 -5 13 -10 21 -10 8 0 14 5 14 10 0 6 -9 10 -21 10 -11
0 -17 -4 -14 -10z"/>
<path d="M3877 2158 c-8 -13 -35 -60 -61 -105 l-47 -82 38 -68 c36 -64 38 -66
41 -38 5 46 22 55 24 12 1 -20 2 -50 3 -66 2 -36 87 -192 127 -233 26 -26 33
-29 51 -19 57 30 82 49 79 64 -1 8 2 18 8 22 17 11 11 22 -12 21 -16 -1 -28
11 -46 43 -15 28 -19 48 -13 54 12 12 3 38 -19 54 -10 7 -20 29 -23 50 -9 64
-25 94 -58 106 -24 9 -29 16 -25 33 4 15 0 24 -12 29 -16 6 -16 7 2 20 16 12
21 12 30 1 7 -8 20 -11 35 -7 22 6 23 8 8 23 -23 22 -21 31 4 25 15 -4 19 -2
15 8 -3 8 -1 15 3 17 5 2 5 12 0 23 -6 17 -8 17 -8 3 -1 -19 -21 -26 -21 -8 0
6 -12 10 -27 10 -16 0 -37 7 -47 15 -26 20 -33 19 -49 -7z m218 -488 c3 -5 -1
-10 -10 -10 -9 0 -13 5 -10 10 3 6 8 10 10 10 2 0 7 -4 10 -10z"/>
<path d="M4105 2140 c3 -5 18 -10 33 -10 21 0 24 2 12 10 -20 13 -53 13 -45 0z"/>
<path d="M3514 2093 c17 -21 28 -23 112 -23 53 0 96 4 99 10 4 7 -25 8 -89 4
-86 -6 -99 -5 -119 12 l-22 19 19 -22z"/>
<path d="M3150 1808 c0 -72 -3 -129 -6 -126 -3 4 -5 62 -5 130 0 110 -1 121
-14 104 -8 -11 -15 -30 -15 -44 0 -13 -4 -21 -10 -17 -12 7 -43 -52 -34 -66 3
-6 3 -26 -1 -46 -5 -31 -9 -34 -30 -29 -21 5 -28 0 -46 -35 -18 -36 -22 -65
-26 -198 l-5 -156 37 35 37 35 -5 133 c-4 131 -4 133 17 130 20 -3 21 -10 24
-116 2 -98 5 -113 18 -108 21 8 54 -11 48 -28 -6 -17 29 -27 67 -19 25 5 29 3
29 -18 0 -13 -14 -40 -31 -59 l-30 -35 3 47 c3 51 -5 55 -38 18 -19 -22 -24
-23 -40 -10 -18 14 -18 14 -1 -6 11 -13 17 -37 17 -66 0 -53 16 -65 41 -34 21
26 38 13 21 -15 -10 -15 -10 -24 -2 -34 8 -9 6 -14 -5 -19 -11 -4 -14 -2 -9 7
4 6 -1 5 -12 -4 -10 -9 -26 -14 -34 -11 -13 4 -13 3 -1 -11 7 -9 17 -14 22
-11 5 3 9 -4 9 -15 0 -11 10 -26 23 -32 12 -7 27 -19 34 -28 10 -15 12 -14 18
1 4 9 4 21 1 27 -10 15 14 25 27 11 9 -10 9 -11 -3 -5 -13 8 -13 7 -1 -8 12
-15 12 -19 -4 -31 -13 -9 -15 -15 -7 -20 7 -4 12 -18 12 -32 0 -14 12 -40 27
-59 l27 -34 30 26 c18 15 30 34 28 44 -2 10 6 22 17 28 42 23 55 5 22 -28 -19
-19 -18 -19 11 -25 58 -11 89 -7 108 16 21 26 11 38 -33 38 -25 0 -27 2 -20
28 4 15 7 34 7 43 0 9 5 15 12 12 17 -6 25 25 12 47 -7 10 -9 22 -6 26 4 3 53
3 110 -2 l103 -8 -75 -8 c-90 -9 -107 -15 -93 -29 6 -6 19 -6 37 1 35 13 216
13 216 0 0 -5 19 -10 43 -10 37 1 40 2 22 13 -11 6 -45 14 -75 18 -51 6 -48 6
35 9 l90 3 -85 7 c-47 5 -142 11 -212 15 l-128 7 -1 37 c-1 20 -5 50 -9 66 -7
23 -8 16 -7 -32 0 -35 -3 -66 -6 -70 -4 -3 -7 34 -7 84 0 91 -5 110 -24 94 -8
-6 -11 1 -12 23 -1 52 -10 66 -44 66 -17 0 -31 -6 -31 -12 -6 -50 -18 119 -19
262 0 96 -5 193 -9 215 l-9 40 -1 -52 c0 -29 -5 -53 -10 -53 -5 0 -7 10 -4 23
4 21 4 21 -8 2 -8 -12 -13 -58 -14 -112 -1 -51 -5 -96 -8 -100 -4 -3 -7 -1 -7
6 0 7 -5 9 -11 6 -5 -4 -21 -4 -35 -1 -24 6 -24 7 -24 141 0 83 -4 135 -10
135 -6 0 -10 -51 -10 -132z m-38 -24 c-6 -35 -12 -29 -12 14 0 23 3 32 9 24 4
-7 6 -24 3 -38z m178 -61 c0 -48 -2 -84 -5 -81 -8 8 -11 177 -3 172 4 -3 8
-44 8 -91z m-183 5 c-3 -8 -6 -5 -6 6 -1 11 2 17 5 13 3 -3 4 -12 1 -19z m53
-186 c0 -40 -4 -61 -10 -57 -5 3 -10 39 -10 78 0 50 3 67 10 57 5 -8 10 -43
10 -78z m54 72 c13 -5 16 -24 16 -100 l0 -95 -30 34 c-27 31 -30 42 -30 101 0
68 5 75 44 60z m45 -154 c0 -32 -2 -41 -9 -30 -5 8 -9 53 -8 100 1 83 1 83 8
30 5 -30 8 -75 9 -100z m28 68 c-2 -13 -4 -5 -4 17 -1 22 1 32 4 23 2 -10 2
-28 0 -40z m9 -166 c-12 -11 -14 4 -7 58 l6 55 3 -54 c2 -29 1 -56 -2 -59z
m94 26 c0 -5 -3 -7 -7 -7 -20 3 -27 -2 -14 -10 12 -8 11 -12 -3 -27 -17 -17
-19 -17 -37 7 -25 32 -24 34 13 52 31 15 47 10 48 -15z m-233 -115 c-2 -16 -4
-5 -4 22 0 28 2 40 4 28 2 -13 2 -35 0 -50z m173 -62 c15 -29 13 -31 -25 -31
-24 0 -35 5 -35 15 0 8 7 15 15 15 8 0 15 5 15 10 0 17 19 11 30 -9z m30 -16
c0 -8 -2 -15 -4 -15 -2 0 -6 7 -10 15 -3 8 -1 15 4 15 6 0 10 -7 10 -15z m31
-45 l24 -20 -29 2 c-19 2 -30 9 -32 21 -3 22 8 22 37 -3z m-119 -72 c-8 -8 -9
-4 -5 13 4 13 8 18 11 10 2 -7 -1 -18 -6 -23z"/>
<path d="M3224 1855 c0 -49 1 -71 3 -48 2 23 2 64 0 90 -2 26 -3 8 -3 -42z"/>
<path d="M3267 1933 c-10 -9 -9 -23 1 -23 5 0 9 7 9 15 0 17 -1 18 -10 8z"/>
<path d="M2931 1560 c-6 -25 -13 -184 -11 -250 0 -28 3 -32 11 -18 5 10 8 74
6 150 -1 73 -4 126 -6 118z"/>
<path d="M4170 1504 c-36 -13 -78 -24 -95 -25 -16 0 -24 -3 -17 -6 6 -2 10 -9
6 -14 -10 -17 24 -20 68 -6 77 27 138 56 138 67 0 15 -28 11 -100 -16z"/>
<path d="M4190 1462 l-35 -17 49 -3 c54 -4 59 -2 50 22 -8 20 -20 20 -64 -2z"/>
<path d="M3523 1433 c37 -2 97 -2 135 0 37 2 6 3 -68 3 -74 0 -105 -1 -67 -3z"/>
<path d="M3954 1355 c0 -49 1 -71 3 -48 2 23 2 64 0 90 -2 26 -3 8 -3 -42z"/>
<path d="M4036 1358 c-49 -85 -256 -482 -256 -491 0 -5 62 -125 138 -268 l137
-259 315 0 315 0 138 260 c76 143 137 266 135 274 -2 8 -64 129 -138 270
l-135 256 -312 0 -312 0 -25 -42z"/>
<path d="M2861 1113 c-50 -3 -68 -8 -78 -24 -18 -25 -33 -24 -33 1 0 19 -5 20
-182 14 -101 -3 -186 -8 -190 -10 -3 -2 -4 -37 -1 -77 5 -68 4 -75 -18 -95
-12 -12 -36 -22 -51 -22 -16 0 -27 -4 -24 -9 3 -5 16 -7 29 -5 20 4 19 3 -3
-6 -21 -9 -28 -8 -42 10 -9 11 -31 23 -50 26 -49 10 -57 20 -55 74 1 26 -1 46
-6 43 -13 -8 -20 27 -8 41 26 31 -66 40 -100 10 -23 -21 -24 -41 -3 -94 13
-32 14 -47 6 -66 -10 -21 -18 -24 -67 -24 -46 0 -57 -4 -70 -24 -15 -23 -13
-29 76 -182 51 -88 106 -184 122 -214 17 -30 44 -76 60 -103 l30 -47 303 0
302 0 107 190 c126 224 133 240 118 272 -7 15 -7 30 -2 40 19 34 -4 54 -56 48
-24 -2 -20 2 24 23 33 16 33 16 62 -12 16 -16 29 -27 29 -24 0 8 -86 167 -116
215 -13 21 -30 37 -37 36 -6 -1 -41 -3 -76 -5z m7 -63 c-22 -30 -35 -41 -22
-17 9 16 36 47 41 47 2 0 -6 -13 -19 -30z m-138 -102 c0 -53 -2 -54 -64 -37
-26 7 -41 7 -45 0 -4 -5 -25 -10 -47 -9 -23 0 -51 -3 -62 -7 -13 -4 -22 -2
-22 4 0 6 -12 11 -26 11 -14 0 -23 -4 -19 -10 4 -6 -7 -10 -24 -10 -24 0 -31
4 -31 20 0 11 6 20 13 20 9 0 8 3 -2 9 -7 5 -11 14 -7 19 9 14 65 10 59 -4 -2
-6 3 -11 11 -11 8 0 13 4 9 9 -3 6 3 8 13 7 11 -2 26 1 34 6 19 12 42 16 36 6
-3 -4 -1 -13 5 -21 7 -12 9 -11 10 5 1 11 1 23 0 27 0 4 26 7 59 6 33 -1 62 1
65 4 3 2 12 5 20 5 11 0 15 -12 15 -49z m111 -79 c6 -23 4 -24 -33 -21 -32 4
-38 8 -38 28 0 21 4 23 32 20 24 -2 34 -9 39 -27z m-324 -15 c-3 -3 -12 -4
-19 -1 -8 3 -5 6 6 6 11 1 17 -2 13 -5z m373 2 c0 -2 -7 -6 -15 -10 -8 -3 -15
-1 -15 4 0 6 7 10 15 10 8 0 15 -2 15 -4z m-362 -60 c3 -32 1 -37 -15 -34 -11
3 -31 -9 -52 -31 -18 -20 -30 -30 -27 -23 4 6 2 12 -3 12 -6 0 -11 6 -11 14 0
8 -13 20 -30 28 -16 7 -30 16 -30 20 0 10 62 -12 81 -28 21 -19 39 0 39 41 0
37 5 44 28 41 12 -2 18 -14 20 -40z m190 19 c7 -14 12 -32 12 -40 0 -11 12
-15 44 -15 l44 0 -16 -47 c-35 -109 -26 -100 -100 -107 -209 -19 -215 -19
-252 5 -21 13 -30 24 -22 27 7 2 21 -3 31 -12 21 -19 40 -21 47 -3 3 10 21 12
65 9 62 -5 103 11 63 24 -10 3 -30 11 -42 17 -19 9 -30 8 -54 -6 -37 -21 -58
-22 -58 -2 0 8 7 15 15 15 10 0 15 10 15 29 0 40 22 57 45 34 16 -16 17 -14
14 30 -4 45 -3 47 21 47 43 0 68 -11 73 -31 3 -10 13 -19 22 -19 14 0 15 3 5
15 -12 14 -5 55 9 55 4 0 13 -11 19 -25z m172 6 c0 -6 -4 -13 -10 -16 -5 -3
-10 1 -10 9 0 9 5 16 10 16 6 0 10 -4 10 -9z m-551 -88 c14 -13 25 -33 26 -44
2 -17 -1 -17 -29 6 -17 14 -39 28 -48 32 -10 3 -18 13 -18 23 0 24 37 15 69
-17z m-62 -53 c-2 -27 -27 -45 -27 -19 0 6 -9 8 -22 3 -20 -6 -21 -5 -9 10 11
13 17 14 28 4 11 -9 15 -7 20 10 8 31 13 27 10 -8z m176 -7 c42 -13 0 -31 -53
-23 -22 3 -24 8 -10 25 8 9 20 13 29 9 9 -3 24 -9 34 -11z m-205 -115 c-3 -7
-13 -15 -24 -17 -16 -3 -17 -1 -5 13 16 19 34 21 29 4z m-21 -34 c-3 -3 -12
-4 -19 -1 -8 3 -5 6 6 6 11 1 17 -2 13 -5z m68 -14 c3 -5 -3 -10 -14 -10 -12
0 -21 5 -21 10 0 6 6 10 14 10 8 0 18 -4 21 -10z m335 -34 c0 -2 -7 -7 -16
-10 -8 -3 -12 -2 -9 4 6 10 25 14 25 6z"/>
<path d="M2798 868 c9 -9 15 -9 24 0 9 9 7 12 -12 12 -19 0 -21 -3 -12 -12z"/>
<path d="M2660 750 c0 -5 -9 -10 -20 -10 -13 0 -20 -7 -20 -18 0 -17 9 -19 74
-18 80 1 106 11 60 22 -16 4 -35 13 -42 21 -16 15 -52 18 -52 3z"/>
<path d="M3107 1060 c-3 -12 -14 -20 -25 -20 -30 0 -33 -12 -13 -44 l19 -28
12 36 c6 21 20 42 31 49 24 15 24 27 0 27 -10 0 -21 -9 -24 -20z"/>
<path d="M3566 1013 c-3 -4 -6 -15 -6 -26 0 -13 5 -17 15 -14 20 8 26 -5 9
-21 -10 -9 -14 -10 -14 -1 0 7 -8 5 -20 -6 -29 -26 -11 -50 39 -53 33 -2 40 0
35 13 -3 8 -10 12 -15 9 -5 -3 -9 -1 -9 5 0 5 6 11 13 14 10 3 10 9 0 26 -7
11 -13 27 -13 35 0 15 -24 28 -34 19z"/>
<path d="M3240 900 c-8 -5 -12 -12 -9 -15 4 -3 12 1 19 10 14 17 11 19 -10 5z"/>
<path d="M2112 140 l-73 -140 460 0 c254 0 461 2 461 5 0 3 -32 66 -72 140
l-71 135 -316 0 -316 0 -73 -140z"/>
</g>
</svg>
